<mxfile host="app.diagrams.net" modified="2023-11-02T10:26:19.371Z" agent="Mozilla/5.0 (Windows NT 10.0; Win64; x64; rv:109.0) Gecko/20100101 Firefox/119.0" version="22.0.8" etag="vYs9IQgc9XjcL7nim-Lk" type="github">
  <diagram name="Page-1" id="xgc421C3f6Mz9qfiC5bY">
    <mxGraphModel>
      <root>
        <mxCell id="0" />
        <mxCell id="1" parent="0" />
      </root>
    </mxGraphModel>
  </diagram>
</mxfile>
